<svg xmlns="http://www.w3.org/2000/svg" width="188" height="169" viewBox="0 0 188 169" fill="none"><path d="M48.309 166.79C90.481 155.431 132.064 135.997 168.512 111.312C193.291 94.5333 191.374 68.3367 175.728 54.5323C155.591 36.7601 110.988 12.8693 76.6416 2.25895C48.7531 -6.36011 22.9858 10.6185 15.4298 37.3291C10.993 53.0051 7.42454 68.9656 4.7944 85.1556C2.29902 100.497 0.726926 114.476 0.0531723 129.364C-1.21947 157.427 20.5104 174.281 48.309 166.79Z" fill="#FFD100"></path><path d="M106.297 63.8948L105.882 66.8743C103.776 64.4588 101.061 63.1812 96.949 63.1812C84.7715 63.1812 78.1288 74.4703 78.3784 86.538C78.598 96.9737 83.7534 101.52 91.6588 101.52C95.851 101.52 98.8255 100.243 101.625 97.8271L101.291 100.807H116.238L121.319 63.8898H106.297V63.8948ZM97.5529 91.938C95.2622 91.938 93.8747 90.0215 93.7949 86.0439C93.6801 80.6489 95.891 72.7684 100.158 72.7684C102.529 72.7684 103.916 74.7547 104.001 78.8721C104.111 84.1973 101.9 91.933 97.5529 91.933V91.938Z" fill="#123274"></path><path d="M138.931 74.1859C138.911 73.1229 140.798 72.7635 143.014 72.7635C147.6 72.7635 151.508 74.3257 154.063 75.6033L155.511 65.3073C152.726 64.4539 148.588 63.1763 142.734 63.1763C131.27 63.1763 123.061 67.7179 123.235 76.2371C123.475 87.7358 138.637 86.6728 138.697 89.7272C138.717 90.6505 137.544 91.2194 135.013 91.2194C131.695 91.2194 126.534 90.2961 122.122 87.3166L120.62 98.6756C125.247 100.662 130.167 101.515 134.754 101.515C146.852 101.515 154.567 96.1203 154.393 87.671C154.148 76.0275 138.991 77.0905 138.931 74.1809V74.1859Z" fill="#123274"></path><path d="M52.0815 126.429H66.7444L69.115 115.649H53.2993L52.0815 126.429Z" fill="#123274"></path><path d="M57.6616 89.2682L55.1912 110.494H68.8858L80.4994 56.1045H62.0734C62.0734 56.1045 62.0734 56.1145 62.0734 56.1195L61.774 58.1707C58.6997 78.3733 54.4675 85.1408 51.9472 84.1576C47.1012 82.2711 50.3651 65.4472 53.09 56.1045H34.9236C32.7926 63.406 31.4151 73.8666 31.9392 80.4694C32.6129 88.9438 37.434 96.5846 45.9433 96.5846C50.3202 96.5846 54.2729 94.2639 57.6616 89.2682Z" fill="#123274"></path></svg>